<svg width="57" height="56" viewBox="0 0 57 56" fill="none" xmlns="http://www.w3.org/2000/svg">
<circle cx="28.791" cy="28" r="28" fill="#274C5B"/>
<path d="M25.5688 39.0001C26.2438 39.0001 26.791 38.4529 26.791 37.7779C26.791 37.1029 26.2438 36.5557 25.5688 36.5557C24.8938 36.5557 24.3466 37.1029 24.3466 37.7779C24.3466 38.4529 24.8938 39.0001 25.5688 39.0001Z" fill="white" stroke="white" stroke-width="1.5" stroke-linecap="round" stroke-linejoin="round"/>
<path d="M34.1243 39.0001C34.7993 39.0001 35.3465 38.4529 35.3465 37.7779C35.3465 37.1029 34.7993 36.5557 34.1243 36.5557C33.4493 36.5557 32.9021 37.1029 32.9021 37.7779C32.9021 38.4529 33.4493 39.0001 34.1243 39.0001Z" fill="white" stroke="white" stroke-width="1.5" stroke-linecap="round" stroke-linejoin="round"/>
<path d="M15.791 17H19.5729L22.4093 33.0731H37.5369" stroke="white" stroke-width="2" stroke-linecap="round" stroke-linejoin="round"/>
<path d="M21.9021 29.1837L37.1493 29.2907C37.2586 29.2908 37.3646 29.2529 37.4492 29.1837C37.5337 29.1144 37.5917 29.0179 37.6132 28.9107L39.315 20.4014C39.3287 20.3328 39.3271 20.262 39.3101 20.1941C39.2932 20.1262 39.2613 20.063 39.217 20.0089C39.1726 19.9548 39.1168 19.9112 39.0535 19.8813C38.9902 19.8514 38.9211 19.8359 38.8511 19.8359L20.3583 19.8359" stroke="white" stroke-width="2" stroke-linecap="round" stroke-linejoin="round"/>
</svg>
